<svg width="125" height="27" viewBox="0 0 125 27" fill="none" xmlns="http://www.w3.org/2000/svg">
<path fill-rule="evenodd" clip-rule="evenodd" d="M4.93319 5.26132e-06L119.927 2.60708e-06C120.398 -3.32252e-05 120.839 -6.70663e-05 121.211 0.0268125C121.614 0.0559022 122.068 0.12296 122.529 0.326792C123.4 0.711971 124.096 1.40825 124.481 2.2795C124.685 2.74056 124.752 3.19457 124.781 3.59703C124.808 3.96886 124.808 4.41017 124.808 4.8811V21.4721C124.808 21.943 124.808 22.3844 124.781 22.7562C124.752 23.1586 124.685 23.6127 124.481 24.0737C124.096 24.945 123.4 25.6412 122.529 26.0264C122.068 26.2303 121.614 26.2973 121.211 26.3264C120.839 26.3533 120.398 26.3533 119.927 26.3532H4.88133C4.41032 26.3533 3.96892 26.3533 3.59702 26.3264C3.19457 26.2973 2.74056 26.2303 2.2795 26.0264C1.40825 25.6412 0.711971 24.945 0.326792 24.0737C0.12296 23.6127 0.0559022 23.1586 0.0268125 22.7562C-6.70663e-05 22.3843 -3.32252e-05 21.9429 2.60708e-06 21.4719L5.26132e-06 4.93319C5.26132e-06 4.91584 3.9342e-06 4.89854 2.60708e-06 4.88127C-3.32252e-05 4.41028 -6.70663e-05 3.9689 0.0268125 3.59703C0.0559022 3.19457 0.12296 2.74056 0.326792 2.2795C0.711971 1.40825 1.40825 0.711971 2.2795 0.326792C2.74056 0.12296 3.19457 0.0559022 3.59703 0.0268125C3.9689 -6.70663e-05 4.41028 -3.32252e-05 4.88127 2.60708e-06C4.89854 3.9342e-06 4.91584 5.26132e-06 4.93319 5.26132e-06ZM1.91774 2.98285C1.73949 3.38604 1.73949 3.90176 1.73949 4.93319V21.42C1.73949 22.4515 1.73949 22.9672 1.91774 23.3704C2.12784 23.8456 2.50762 24.2254 2.98285 24.4355C3.38604 24.6137 3.90176 24.6137 4.93318 24.6137H119.875C120.906 24.6137 121.422 24.6137 121.825 24.4355C122.3 24.2254 122.68 23.8456 122.89 23.3704C123.069 22.9672 123.069 22.4515 123.069 21.42V4.93319C123.069 3.90176 123.069 3.38604 122.89 2.98285C122.68 2.50762 122.3 2.12784 121.825 1.91774C121.422 1.73949 120.906 1.73949 119.875 1.73949H4.93319C3.90176 1.73949 3.38604 1.73949 2.98285 1.91774C2.50762 2.12784 2.12784 2.50762 1.91774 2.98285Z" fill="#FB9EBB"/>
<path fill-rule="evenodd" clip-rule="evenodd" d="M73.0794 15.9338L73.0797 15.9344L73.0803 15.9346L73.0805 15.9346L73.081 15.9349L76.6941 20.1544C76.9946 20.5052 76.7451 21.0466 76.283 21.0466H72.0992C71.5421 21.0466 71.0134 20.7979 70.6578 20.3691L67.5415 16.6089C67.4387 16.4849 67.2859 16.4131 67.1247 16.4131H64.2149C63.916 16.4131 63.6738 16.6552 63.6738 16.9538V20.5059C63.6738 20.8045 63.4315 21.0466 63.1326 21.0466H58.7623C58.4634 21.0466 58.2212 20.8045 58.2212 20.5059V5.84843C58.2212 5.54984 58.4634 5.30777 58.7622 5.30771L69.9526 5.30545C73.5027 5.40731 77.2496 7.12001 76.9971 11.2229C76.8418 13.7387 75.3151 15.0013 73.1352 15.873C73.1233 15.8777 73.1124 15.8776 73.1032 15.8774C73.0826 15.8771 73.0714 15.877 73.0794 15.9338ZM64.2137 12.7745H69.1809C70.665 12.816 71.9025 11.8542 71.3039 10.2754C71.0775 9.67603 70.1742 9.252 69.5661 9.252H64.2137C63.9149 9.252 63.6726 9.49409 63.6726 9.79272V12.2338C63.6726 12.5324 63.9149 12.7745 64.2137 12.7745ZM111.836 5.30545L100.104 5.30782C100.105 5.30782 100.105 5.30835 100.105 5.309V20.5047C100.105 20.8034 100.348 21.0455 100.647 21.0455H105.017C105.316 21.0455 105.558 20.8034 105.558 20.5047V16.9527C105.558 16.654 105.8 16.4119 106.099 16.4119H109.009C109.17 16.4119 109.323 16.4838 109.426 16.6078L112.665 20.5184C112.942 20.8524 113.354 21.0455 113.788 21.0455H118.167C118.629 21.0455 118.878 20.5043 118.578 20.1534L115.034 16.0104C114.99 15.9583 114.953 15.8981 115.017 15.873C117.17 15.0475 118.727 13.7233 118.881 11.2632C119.141 7.11409 115.428 5.42034 111.836 5.30545ZM105.557 12.7745C105.556 12.7745 105.556 12.775 105.556 12.7757V9.79272C105.556 9.49409 105.798 9.252 106.097 9.252H111.449C112.172 9.252 113.049 9.7163 113.245 10.4471C113.673 12.0461 112.465 12.784 111.028 12.7745H105.557ZM54.9159 5.30771C55.2147 5.30771 55.457 5.5498 55.457 5.84844V8.71117C55.457 9.0098 55.2147 9.25189 54.9159 9.25189H44.2869C43.988 9.25189 43.7458 9.49398 43.7458 9.79262V10.7401C43.7458 11.0387 43.988 11.2808 44.2869 11.2808H52.7656C53.0645 11.2808 53.3068 11.5229 53.3068 11.8216V14.3787C53.3068 14.6773 53.0645 14.9194 52.7656 14.9194H44.2869C43.988 14.9194 43.7458 15.1615 43.7458 15.4602V16.5616C43.7458 16.8603 43.988 17.1024 44.2869 17.1024H55.1838C55.4826 17.1024 55.7249 17.3444 55.7249 17.6431V20.5058C55.7249 20.8044 55.4826 21.0465 55.1838 21.0465H38.9113C38.6125 21.0465 38.3702 20.8044 38.3702 20.5058V5.84844C38.3702 5.5498 38.6125 5.30771 38.9113 5.30771H54.9159ZM84.9791 5.3089C84.9791 5.30824 84.9786 5.30771 84.9779 5.30771H80.0286C79.7297 5.30771 79.4874 5.5498 79.4874 5.84844V20.5058C79.4874 20.8044 79.7297 21.0465 80.0286 21.0465H84.4368C84.7357 21.0465 84.9779 20.8044 84.9779 20.5058V17.8916C84.9779 17.7424 85.0397 17.6 85.1481 17.4974C85.3836 17.2745 85.6179 17.0497 85.8522 16.8249L85.8523 16.8247C86.3885 16.3103 86.9251 15.7954 87.4783 15.3011C87.7119 15.0923 88.073 15.1326 88.2603 15.3837L92.0557 20.4721C92.3259 20.8333 92.7503 21.0465 93.2019 21.0465H97.7564C98.2025 21.0465 98.457 20.5376 98.1892 20.1812L92.0661 12.0319C91.9008 11.8119 91.9272 11.5029 92.1273 11.3141L97.5035 6.24159C97.8595 5.9057 97.6216 5.30771 97.132 5.30771H92.5251C92.1054 5.30771 91.7024 5.47117 91.4002 5.76254L85.8966 11.0842C85.5532 11.4163 84.9791 11.1731 84.9791 10.6957V5.3089ZM23.1938 5.30566C23.4895 5.30566 23.6896 5.60746 23.5748 5.87969L23.5208 6.00755L21.6221 10.5135H22.6463C23.2791 10.5135 23.5972 10.5135 23.8283 10.6552C24.062 10.7985 24.2068 11.0866 24.4979 11.6659L25.4416 13.5845C25.646 14.0011 26.2461 13.9837 26.4262 13.5558L29.7625 5.63595C29.8469 5.43504 30.0434 5.30545 30.2609 5.30545H35.6089H35.8046H35.8055C36.1012 5.30545 36.3012 5.60725 36.1864 5.87948L36.1325 6.00733L29.9382 20.7069C29.8538 20.9078 29.6564 21.0382 29.4381 21.0382L23.2116 21.026C23.0046 21.026 22.8159 20.9078 22.7254 20.7216L19.8317 14.7622L17.3265 20.7071C17.2422 20.908 17.0447 21.0384 16.8264 21.0384L10.5999 21.0263C10.3929 21.0263 10.2042 20.908 10.1138 20.7219L5.53456 11.2912C5.35974 10.932 5.62153 10.5137 6.02074 10.5137H10.0346C10.6674 10.5137 10.9855 10.5137 11.2167 10.6554C11.4503 10.7987 11.5951 11.0868 11.8863 11.6661L12.83 13.5847C13.0343 14.0014 13.6345 13.984 13.8145 13.556L17.1508 5.63617C17.2352 5.43526 17.4318 5.30566 17.6492 5.30566H22.9973H23.1929H23.1938Z" fill="#0B1956"/>
</svg>
